<?xml version="1.0" encoding="UTF-8"?>
<svg version="1.1" xmlns="http://www.w3.org/2000/svg" width="1320" height="1000">
<path d="M0 0 C435.6 0 871.2 0 1320 0 C1320 330 1320 660 1320 1000 C884.4 1000 448.8 1000 0 1000 C0 670 0 340 0 0 Z " fill="#000000" transform="translate(0,0)"/>
<path d="M0 0 C3.62806134 1.45122453 6.74228784 2.87544185 10.11328125 4.765625 C11.10126709 5.31855225 12.08925293 5.87147949 13.10717773 6.44116211 C14.16493408 7.03807861 15.22269043 7.63499512 16.3125 8.25 C17.42117432 8.87334229 18.52984863 9.49668457 19.67211914 10.13891602 C29.14193552 15.48015821 38.53790982 20.94435473 47.91796875 26.44140625 C63.84428554 35.77272973 79.86969965 44.93331106 95.9041748 54.0770874 C104.94293243 59.23316483 113.94259442 64.45310312 122.92236328 69.71118164 C130.58602456 74.19189513 138.28701637 78.60503228 146 83 C155.72124506 88.53985933 165.40894868 94.13374932 175.06689453 99.78344727 C182.32211716 104.02617267 189.59352496 108.23999497 196.875 112.4375 C197.95394531 113.05947266 199.03289062 113.68144531 200.14453125 114.32226562 C203.42942992 116.21529126 206.71465103 118.10775598 210 120 C223.67782032 127.87793746 237.34501127 135.77241069 250.97241211 143.73730469 C258.1954291 147.95590112 265.43795043 152.13969542 272.6875 156.3125 C281.91839354 161.62861996 291.12506129 166.98427477 300.3125 172.375 C300.90950714 172.72524231 301.50651428 173.07548462 302.12161255 173.43634033 C308.38739382 177.11284842 314.65046166 180.79395795 320.91172791 184.47814941 C323.52160614 186.01340735 326.13225465 187.54735246 328.74301147 189.08111572 C330.56163412 190.15024844 332.37910363 191.22132135 334.1965332 192.29248047 C341.06311287 196.32666372 347.98083278 200.2372661 355 204 C352.74640756 206.46517623 350.47569789 208.00416194 347.5546875 209.609375 C346.65580811 210.10872559 345.75692871 210.60807617 344.83081055 211.12255859 C343.36768433 211.92814209 343.36768433 211.92814209 341.875 212.75 C333.38793828 217.48132766 325.00061118 222.34443775 316.6875 227.375 C306.00503602 233.83042805 295.22532888 240.10010266 284.40234375 246.31640625 C278.25169771 249.84951878 272.12316946 253.41953253 266 257 C256.59023791 262.49969523 247.15529267 267.95449294 237.7109375 273.39453125 C230.4604851 277.57349128 223.22511731 281.77740506 216 286 C206.5900967 291.49945536 197.15529437 296.95449196 187.7109375 302.39453125 C180.46048459 306.57349158 173.22516137 310.77747989 166 315 C154.45277514 321.74713114 142.87097881 328.4333937 131.28222656 335.10888672 C126.9358286 337.6131413 122.59089727 340.11993352 118.24609375 342.62695312 C114.99496521 344.50290515 111.74357626 346.37840529 108.4921875 348.25390625 C104.18398349 350.73930902 99.87677211 353.22641977 95.5703125 355.71484375 C83.76604905 362.53367241 71.94445254 369.32058741 60.10232544 376.07333374 C51.89619021 380.75443101 43.71708664 385.47962316 35.5625 390.25 C27.7859791 394.79736999 20.00008575 399.32730932 12.1875 403.8125 C11.30328369 404.32264648 10.41906738 404.83279297 9.50805664 405.35839844 C8.69457764 405.82407227 7.88109863 406.28974609 7.04296875 406.76953125 C6.33164795 407.17792236 5.62032715 407.58631348 4.88745117 408.00708008 C3 409 3 409 0 410 C0 274.7 0 139.4 0 0 Z " fill="#BC9D5A" transform="translate(483,194)"/>
<path d="M0 0 C1.56721519 0.04245906 3.13439935 0.08607663 4.70155334 0.1307373 C6.36773431 0.13412567 8.03393318 0.13221535 9.70010376 0.12542725 C14.20726845 0.12199344 18.7105761 0.1923697 23.21684647 0.27631474 C27.93184419 0.35149814 32.64693737 0.35839223 37.36244202 0.37261963 C46.28430785 0.40986979 55.20440234 0.50827332 64.12548923 0.62881351 C74.28484356 0.76309535 84.44428397 0.82895866 94.60430527 0.88915873 C115.49708376 1.01448111 136.38826933 1.22545406 157.27967834 1.49304199 C154.67607915 4.20889001 152.06576248 5.9040221 148.77577209 7.75866699 C147.65606018 8.39361084 146.53634827 9.02855469 145.38270569 9.68273926 C144.48802582 10.18560959 144.48802582 10.18560959 143.57527161 10.69863892 C141.04126281 12.12296278 138.51334074 13.55794085 135.98487854 14.99208069 C134.67718248 15.73357544 133.36915473 16.4744855 132.06080627 17.21482849 C125.7383827 20.79317054 119.44393183 24.4192433 113.15467834 28.05554199 C111.00624388 29.29643266 108.85780638 30.53731807 106.70936584 31.77819824 C105.6494342 32.39066406 104.58950256 33.00312988 103.49745178 33.63415527 C98.09297189 36.75628804 92.68620422 39.87445403 87.27967834 42.99304199 C85.11300084 44.24302321 82.94633417 45.4930232 80.77967834 46.74304199 C67.77967835 54.24304199 67.77967835 54.24304199 64.52919006 56.11828613 C62.36410764 57.36739717 60.19906852 58.61658328 58.03407288 59.86584473 C52.59352129 63.00506509 47.15220619 66.14294762 41.70936584 69.27819824 C30.22660937 75.89445316 18.76006933 82.5369421 7.31825256 89.22375488 C-1.10601504 94.14355481 -9.55586062 99.01826337 -18.00938416 103.88757324 C-25.25983679 108.06653341 -32.49518401 112.27048155 -39.72032166 116.49304199 C-48.142881 121.41497293 -56.58128909 126.30852559 -65.03282166 131.18054199 C-66.12167664 131.808396 -67.21053162 132.43625 -68.3323822 133.08312988 C-72.38793036 135.42111342 -76.44365554 137.75877967 -80.50157166 140.09265137 C-83.01290037 141.53703909 -85.5231558 142.98326727 -88.03282166 144.43054199 C-88.79304626 144.86809814 -89.55327087 145.3056543 -90.33653259 145.75646973 C-93.82911088 147.77684531 -97.29085399 149.83019311 -100.70469666 151.98132324 C-101.31402039 152.3648999 -101.92334412 152.74847656 -102.5511322 153.14367676 C-104.15620303 154.162658 -105.75308865 155.1945014 -107.34922791 156.22741699 C-108.52291931 156.85390137 -108.52291931 156.85390137 -109.72032166 157.49304199 C-110.38032166 157.16304199 -111.04032166 156.83304199 -111.72032166 156.49304199 C-105.91203569 147.10538342 -99.99525201 137.79714803 -93.96177673 128.5526123 C-89.50923103 121.72395776 -85.10798435 114.86353592 -80.72032166 107.99304199 C-74.25906922 97.8790734 -67.7408935 87.80387181 -61.18907166 77.74841309 C-54.35741526 67.25791412 -47.5872545 56.7289059 -40.84532166 46.18054199 C-35.82743814 38.33167699 -30.79538736 30.49257748 -25.72032166 22.68054199 C-25.22934998 21.924104 -24.7383783 21.16766602 -24.23252869 20.38830566 C-23.29019134 18.94052129 -22.33297132 17.50227809 -21.35877991 16.07573318 C-19.64187806 13.47721574 -19.64187806 13.47721574 -18.24858093 10.46007919 C-13.6756503 1.88932664 -9.49790554 -0.02280974 0 0 Z " fill="#000000" transform="translate(626.7203216552734,397.5069580078125)"/>
<path d="M0 0 C7.26 0 14.52 0 22 0 C27.67278175 12.04535548 33.10556094 24.18380995 38.47314453 36.36767578 C39.52962224 38.76421453 40.58887095 41.15951317 41.6484375 43.5546875 C42.1327272 44.65754593 42.1327272 44.65754593 42.62680054 45.78268433 C43.93913074 49.12856302 43.93913074 49.12856302 46 52 C46.34144043 51.2064209 46.68288086 50.4128418 47.03466797 49.59521484 C54.18895089 32.98337734 61.45569095 16.43983764 69 0 C76.59 0 84.18 0 92 0 C92 26.73 92 53.46 92 81 C86.06 81 80.12 81 74 81 C73.67 65.49 73.34 49.98 73 34 C62.46409753 57.48399261 62.46409753 57.48399261 52 81 C47.71 81 43.42 81 39 81 C31.67159054 65.80650463 24.81462118 50.43080887 18 35 C17.67 50.18 17.34 65.36 17 81 C11.39 81 5.78 81 0 81 C0 54.27 0 27.54 0 0 Z " fill="#C7AD68" transform="translate(809,658)"/>
<path d="M0 0 C6.27 0 12.54 0 19 0 C21.81563068 11.02011745 24.36409092 22.05455071 26.6875 33.1875 C26.99777642 34.66216631 27.30832255 36.13677589 27.61914062 37.61132812 C28.76792379 43.06986935 29.91553689 48.52824283 31 54 C33.34976582 50.47535128 34.24210939 46.97650877 35.3125 42.9375 C35.75512574 41.30726924 36.1978365 39.67706156 36.640625 38.046875 C36.86556641 37.21091797 37.09050781 36.37496094 37.32226562 35.51367188 C45.60708263 4.78583474 45.60708263 4.78583474 48 0 C53.28 0 58.56 0 64 0 C66.475361 6.21769672 68.24900104 12.45087131 69.875 18.9375 C72.05766253 27.48192545 74.38305262 35.96124503 76.921875 44.40625 C77.97889706 47.92965687 78.99668328 51.4610283 80 55 C81.6299445 50.39613745 82.80598691 45.76200176 83.83984375 40.99609375 C84.00746719 40.23635757 84.17509064 39.4766214 84.34779358 38.69386292 C84.88072038 36.27572866 85.40928182 33.85666672 85.9375 31.4375 C86.6330083 28.26928766 87.33019288 25.10144499 88.02734375 21.93359375 C88.27887711 20.78822647 88.27887711 20.78822647 88.53549194 19.61972046 C89.97695066 13.06860475 91.47772643 6.53289191 93 0 C98.94 0 104.88 0 111 0 C109.77544871 8.76994823 108.07696879 17.15081232 105.75 25.6875 C103.2676785 35.00743562 100.94237328 44.34317443 98.8125 53.75 C96.73911273 62.89822256 94.50063643 71.95923752 92 81 C84.74 81 77.48 81 70 81 C68.24573473 76.32195927 66.62451732 71.99720677 65.31640625 67.2421875 C65.03031494 66.2102124 64.74422363 65.1782373 64.44946289 64.11499023 C64.15676514 63.04579346 63.86406738 61.97659668 63.5625 60.875 C62.94818749 58.65487296 62.33360568 56.43482042 61.71875 54.21484375 C61.27789063 52.61745361 61.27789063 52.61745361 60.828125 50.98779297 C59.2557023 45.31464763 57.62930878 39.65704104 56 34 C55.67 34 55.34 34 55 34 C54.8548999 34.57105469 54.7097998 35.14210938 54.56030273 35.73046875 C50.68580554 50.92055048 46.44756332 65.96723598 42 81 C34.41 81 26.82 81 19 81 C14.62992094 63.71933204 10.34282709 46.43194049 6.38671875 29.05078125 C4.80911758 22.12519026 3.15219099 15.218971 1.47192383 8.31762695 C0 2.21460254 0 2.21460254 0 0 Z " fill="#DFCE83" transform="translate(691,658)"/>
<path d="M0 0 C10.085625 -0.12375 10.085625 -0.12375 20.375 -0.25 C22.47665527 -0.28641602 24.57831055 -0.32283203 26.74365234 -0.36035156 C28.4410704 -0.37205244 30.13849982 -0.38224094 31.8359375 -0.390625 C32.6916333 -0.41108887 33.5473291 -0.43155273 34.42895508 -0.45263672 C42.54355687 -0.45724336 49.71197777 1.70481954 55.875 7.125 C61.59183239 13.47703599 63.74064755 20.87519635 63.3828125 29.33203125 C62.3203876 36.73648237 58.49000293 42.99249139 53 48 C49.54632011 50.3973483 45.75203689 52.12398155 42 54 C42.61089478 54.648479 42.61089478 54.648479 43.23413086 55.31005859 C66 79.49217097 66 79.49217097 66 81 C43.8919126 83.07537708 43.8919126 83.07537708 38.2734375 78.71484375 C35.86429488 76.2885513 33.9427727 73.56887129 32.11035156 70.68994141 C30.27442323 67.89568109 28.0947514 65.4278602 25.9375 62.875 C25.22464844 61.98554687 24.51179688 61.09609375 23.77734375 60.1796875 C22.03354816 57.96611041 22.03354816 57.96611041 20 56 C19.67 64.25 19.34 72.5 19 81 C12.73 81 6.46 81 0 81 C0 54.27 0 27.54 0 0 Z " fill="#C8AF69" transform="translate(445,658)"/>
<path d="M0 0 C6.93 0 13.86 0 21 0 C28.17439349 9.05505975 28.17439349 9.05505975 30.15625 13.33984375 C33.13444789 19.43170914 36.73371732 25.01642909 40.4375 30.6875 C41.58462973 32.48141395 42.72927734 34.27691823 43.87109375 36.07421875 C44.35505615 36.83307373 44.83901855 37.59192871 45.33764648 38.3737793 C47.57365048 41.90626498 49.78423873 45.45478196 52 49 C52.33 32.83 52.66 16.66 53 0 C58.94 0 64.88 0 71 0 C71 26.73 71 53.46 71 81 C64.07 81 57.14 81 50 81 C42.82560651 71.94494025 42.82560651 71.94494025 40.84375 67.66015625 C37.86555211 61.56829086 34.26628268 55.98357091 30.5625 50.3125 C29.41537027 48.51858605 28.27072266 46.72308177 27.12890625 44.92578125 C26.64494385 44.16692627 26.16098145 43.40807129 25.66235352 42.6262207 C23.42634952 39.09373502 21.21576127 35.54521804 19 32 C18.67 48.17 18.34 64.34 18 81 C12.06 81 6.12 81 0 81 C0 54.27 0 27.54 0 0 Z " fill="#9B6F35" transform="translate(226,658)"/>
<path d="M0 0 C0.9583374 0.00523682 1.9166748 0.01047363 2.90405273 0.01586914 C3.83548096 0.0183667 4.76690918 0.02086426 5.7265625 0.0234375 C7.51404907 0.03709351 7.51404907 0.03709351 9.33764648 0.05102539 C11.37792781 0.06251358 13.41821119 0.07363984 15.45849609 0.08447266 C17.23071289 0.0941569 19.00292969 0.10384115 20.77514648 0.11352539 C26.77346151 16.70608505 32.70845899 33.32018357 38.57177734 49.9609375 C39.43038603 52.39600804 40.29046005 54.8305623 41.15185547 57.26464844 C42.41602575 60.83691398 43.67615826 64.41057951 44.93530273 67.98461914 C45.32267105 69.07705429 45.71003937 70.16948944 46.10914612 71.29502869 C46.46049118 72.29530594 46.81183624 73.29558319 47.17382812 74.32617188 C47.48421524 75.20562973 47.79460236 76.08508759 48.11439514 76.99119568 C48.77514648 79.11352539 48.77514648 79.11352539 48.77514648 81.11352539 C42.17514648 81.11352539 35.57514648 81.11352539 28.77514648 81.11352539 C24.77514648 69.36352539 24.77514648 69.36352539 24.77514648 67.11352539 C8.93514648 67.60852539 8.93514648 67.60852539 -7.22485352 68.11352539 C-8.54485352 72.07352539 -9.86485352 76.03352539 -11.22485352 80.11352539 C-12.22485352 81.11352539 -12.22485352 81.11352539 -13.99072266 81.22705078 C-14.7395874 81.22181396 -15.48845215 81.21657715 -16.26000977 81.21118164 C-17.06889648 81.20795898 -17.8777832 81.20473633 -18.71118164 81.20141602 C-19.56131836 81.19303711 -20.41145508 81.1846582 -21.28735352 81.17602539 C-22.14135742 81.17151367 -22.99536133 81.16700195 -23.87524414 81.16235352 C-25.99181015 81.15052912 -28.10834037 81.13259308 -30.22485352 81.11352539 C-29.62043671 74.97596658 -27.81718055 69.59136811 -25.72485352 63.80883789 C-25.3728186 62.81955795 -25.02078369 61.83027802 -24.65808105 60.8110199 C-23.52004128 57.61787174 -22.37268272 54.42816616 -21.22485352 51.23852539 C-20.44503175 49.05764204 -19.66573532 46.87657078 -18.88696289 44.6953125 C-17.36142955 40.42596794 -15.83209847 36.15801707 -14.29907227 31.89135742 C-12.56743925 27.07144229 -10.84631362 22.24789747 -9.13110352 17.42211914 C-8.3293826 15.17329199 -7.52734198 12.92457876 -6.72485352 10.67602539 C-6.37036133 9.67909668 -6.01586914 8.68216797 -5.65063477 7.6550293 C-5.33481445 6.77637207 -5.01899414 5.89771484 -4.69360352 4.99243164 C-4.42999023 4.25581299 -4.16637695 3.51919434 -3.89477539 2.76025391 C-2.89809463 0.31032251 -2.72115076 0.13884946 0 0 Z " fill="#B49251" transform="translate(937.224853515625,657.886474609375)"/>
<path d="M0 0 C19.8 0 39.6 0 60 0 C60 5.61 60 11.22 60 17 C46.47 17 32.94 17 19 17 C19 21.95 19 26.9 19 32 C31.54 32 44.08 32 57 32 C57 37.28 57 42.56 57 48 C44.46 48 31.92 48 19 48 C19 53.28 19 58.56 19 64 C32.53 64 46.06 64 60 64 C60 69.61 60 75.22 60 81 C40.2 81 20.4 81 0 81 C0 54.27 0 27.54 0 0 Z " fill="#B89957" transform="translate(377,658)"/>
<path d="M0 0 C19.8 0 39.6 0 60 0 C60 5.28 60 10.56 60 16 C46.47 16 32.94 16 19 16 C19 21.28 19 26.56 19 32 C31.54 32 44.08 32 57 32 C57 37.28 57 42.56 57 48 C44.46 48 31.92 48 19 48 C19 53.61 19 59.22 19 65 C32.53 65 46.06 65 60 65 C60 70.28 60 75.56 60 81 C40.2 81 20.4 81 0 81 C0 54.27 0 27.54 0 0 Z " fill="#95672E" transform="translate(1062,658)"/>
<path d="M0 0 C19.47 0 38.94 0 59 0 C59 5.28 59 10.56 59 16 C45.47 16 31.94 16 18 16 C18 21.28 18 26.56 18 32 C30.54 32 43.08 32 56 32 C56 37.28 56 42.56 56 48 C43.46 48 30.92 48 18 48 C18 53.61 18 59.22 18 65 C31.53 65 45.06 65 59 65 C59 70.28 59 75.56 59 81 C39.53 81 20.06 81 0 81 C0 54.27 0 27.54 0 0 Z " fill="#F1E696" transform="translate(627,658)"/>
<path d="M0 0 C6.6 0 13.2 0 20 0 C21.78009955 5.17309278 23.55886814 10.34660774 25.33447266 15.52124023 C25.9369199 17.27572726 26.54009036 19.02996615 27.14404297 20.78393555 C30.28545332 29.90861255 33.36490558 39.02954338 36.14746094 48.27075195 C37.28471676 51.91146868 38.60776301 55.44979567 40 59 C46.34687782 39.33767236 52.68189309 19.67159375 59 0 C65.6 0 72.2 0 79 0 C69.76682458 27.03501741 60.40189917 54.02323093 51 81 C43.41 81 35.82 81 28 81 C21.93889799 64.26622088 16.00460823 47.49592707 10.20336914 30.67041016 C9.12592935 27.54635427 8.0463252 24.4230641 6.96556759 21.30015564 C5.92215813 18.2839554 4.8810903 15.26694747 3.83984375 12.25 C3.45247543 11.13052979 3.06510712 10.01105957 2.66600037 8.85766602 C2.3146553 7.83729248 1.96331024 6.81691895 1.60131836 5.765625 C1.29093124 4.86618164 0.98054413 3.96673828 0.66075134 3.04003906 C0 1 0 1 0 0 Z " fill="#DAC87E" transform="translate(514,658)"/>
<path d="M0 0 C22.11 0 44.22 0 67 0 C67 5.61 67 11.22 67 17 C58.75 17 50.5 17 42 17 C42 38.12 42 59.24 42 81 C36.06 81 30.12 81 24 81 C24 59.88 24 38.76 24 17 C16.08 17 8.16 17 0 17 C0 11.39 0 5.78 0 0 Z " fill="#AC8748" transform="translate(304,658)"/>
<path d="M0 0 C21.78 0 43.56 0 66 0 C66 5.28 66 10.56 66 16 C58.08 16 50.16 16 42 16 C42 37.45 42 58.9 42 81 C36.06 81 30.12 81 24 81 C24 59.88 24 38.76 24 17 C16.08 17 8.16 17 0 17 C0 11.39 0 5.78 0 0 Z " fill="#A57C3F" transform="translate(989,658)"/>
<path d="M0 0 C5.94 0 11.88 0 18 0 C18 26.73 18 53.46 18 81 C12.06 81 6.12 81 0 81 C0 54.27 0 27.54 0 0 Z " fill="#E9DB8D" transform="translate(599,658)"/>
<path d="M0 0 C5.94 0 11.88 0 18 0 C18 26.73 18 53.46 18 81 C12.06 81 6.12 81 0 81 C0 54.27 0 27.54 0 0 Z " fill="#916028" transform="translate(198,658)"/>
<path d="M0 0 C20.72492837 0 20.72492837 0 24.55078125 3.36328125 C28.56422228 7.91938473 29.35742929 11.86417687 29.28125 17.7109375 C28.8395937 21.30552907 27.39277706 23.34854434 25 26 C23.35617254 26.72114735 21.69079542 27.39714591 20 28 C20.5775 28.78246094 21.155 29.56492187 21.75 30.37109375 C22.86375 31.88896484 22.86375 31.88896484 24 33.4375 C24.7425 34.44683594 25.485 35.45617187 26.25 36.49609375 C28 39 28 39 28 40 C24.9375 40.625 24.9375 40.625 21 40 C19.29296875 37.80859375 19.29296875 37.80859375 17.625 35.0625 C15.33698247 31.20133994 15.33698247 31.20133994 11.55859375 29.11328125 C8.80587106 28.79777397 8.80587106 28.79777397 5 29 C5 32.63 5 36.26 5 40 C3.35 40 1.7 40 0 40 C0 26.8 0 13.6 0 0 Z " fill="#D4C47C" transform="translate(573,766)"/>
<path d="M0 0 C20.03225806 0 20.03225806 0 26.5625 4.9375 C28.82920839 9.76657439 28.77313845 14.76216111 28 20 C26.38554533 23.11863238 24.7226923 25.7508194 22 28 C21.34 28 20.68 28 20 28 C20.75796875 29.04800781 20.75796875 29.04800781 21.53125 30.1171875 C22.50578125 31.48230469 22.50578125 31.48230469 23.5 32.875 C24.1496875 33.77992188 24.799375 34.68484375 25.46875 35.6171875 C27 38 27 38 27 40 C24.734375 40.30859375 24.734375 40.30859375 22 40 C20.078125 37.84765625 20.078125 37.84765625 18.25 35.0625 C15.50912815 31.24511393 15.50912815 31.24511393 11.484375 29.11328125 C8.75181443 28.79832723 8.75181443 28.79832723 5 29 C5 32.63 5 36.26 5 40 C3.35 40 1.7 40 0 40 C0 26.8 0 13.6 0 0 Z " fill="#BA9D5C" transform="translate(834,766)"/>
<path d="M0 0 C1.65 0 3.3 0 5 0 C13 18.85106383 13 18.85106383 13 26 C13.66 26 14.32 26 15 26 C15.1335791 25.27006836 15.2671582 24.54013672 15.40478516 23.78808594 C16.3277884 19.46458429 17.8693799 15.39978763 19.375 11.25 C19.67921875 10.37472656 19.9834375 9.49945312 20.296875 8.59765625 C20.59851563 7.76621094 20.90015625 6.93476562 21.2109375 6.078125 C21.48212402 5.31918945 21.75331055 4.56025391 22.03271484 3.77832031 C23 2 23 2 26 1 C28.97 8.92 31.94 16.84 35 25 C38.387909 17.094879 41.39846265 9.1970227 44 1 C45.65 1 47.3 1 49 1 C47.25123001 7.8386859 45.1918551 14.52325837 42.91845703 21.20556641 C40.71355434 27.74015689 38.83346846 34.35239648 37 41 C36.34 41 35.68 41 35 41 C33.49198432 37.06552291 31.99497086 33.12695023 30.5 29.1875 C30.07074219 28.06794922 29.64148438 26.94839844 29.19921875 25.79492188 C28.79316406 24.72177734 28.38710938 23.64863281 27.96875 22.54296875 C27.59169922 21.55321045 27.21464844 20.56345215 26.82617188 19.54370117 C26 17 26 17 26 14 C25.34 14 24.68 14 24 14 C23.85884766 14.95712891 23.85884766 14.95712891 23.71484375 15.93359375 C22.73322659 20.14435587 21.1531339 24.04866007 19.5625 28.0625 C19.24990234 28.86494141 18.93730469 29.66738281 18.61523438 30.49414062 C17.20738771 34.08072675 15.76223107 37.5703125 14 41 C11.6574311 37.48614665 10.48845841 33.87645674 9.1796875 29.90234375 C8.91616486 29.11227432 8.65264221 28.3222049 8.38113403 27.50819397 C7.82598488 25.84040875 7.2730475 24.17188591 6.72216797 22.50268555 C5.87645931 19.94191873 5.02276287 17.38391839 4.16796875 14.82617188 C3.62973225 13.20588724 3.09195599 11.58544962 2.5546875 9.96484375 C2.29847626 9.19712143 2.04226501 8.42939911 1.77828979 7.63841248 C0 2.23104034 0 2.23104034 0 0 Z " fill="#8E612B" transform="translate(980,766)"/>
<path d="M0 0 C7.37732149 6.32341842 14.0698941 12.75201151 20.359375 20.140625 C22.15307514 22.17348516 24.08298661 24.08298661 26 26 C26.33 17.75 26.66 9.5 27 1 C28.65 1 30.3 1 32 1 C32 13.87 32 26.74 32 40 C28.06481875 38.03240937 26.54957581 36.62774455 23.75 33.375 C20.27832499 29.4122657 16.71059253 25.64356372 12.921875 21.984375 C10.47136135 19.45416984 8.25495404 16.70594485 6 14 C5.67 22.58 5.34 31.16 5 40 C3.35 40 1.7 40 0 40 C0 26.8 0 13.6 0 0 Z " fill="#DACA81" transform="translate(708,766)"/>
<path d="M0 0 C0.66 0 1.32 0 2 0 C4.12415118 4.89031038 6.24187618 9.78333439 8.35375977 14.67895508 C9.07271297 16.34312363 9.79339959 18.00654445 10.51586914 19.66918945 C11.55554284 22.06265713 12.58890113 24.458767 13.62109375 26.85546875 C13.94403915 27.5952446 14.26698456 28.33502045 14.59971619 29.09721375 C16.15149629 32.71699295 17.42998884 36.07063313 18 40 C16.35 40 14.7 40 13 40 C12.01 37.69 11.02 35.38 10 33 C4.06 33 -1.88 33 -8 33 C-8.99 35.31 -9.98 37.62 -11 40 C-12.65 40 -14.3 40 -16 40 C-14.33714797 34.67131508 -12.42541098 29.58906519 -10.1015625 24.515625 C-8.80072551 21.54491925 -7.64949049 18.53239824 -6.5 15.5 C-4.50608616 10.24668521 -2.35861031 5.09934184 0 0 Z " fill="#8E6029" transform="translate(307,766)"/>
<path d="M0 0 C0.9583374 0.00523682 1.9166748 0.01047363 2.90405273 0.01586914 C4.45576172 0.02070312 4.45576172 0.02070312 6.03881836 0.02563477 C7.12743164 0.03401367 8.21604492 0.04239258 9.33764648 0.05102539 C10.97636719 0.05779297 10.97636719 0.05779297 12.64819336 0.06469727 C15.35723144 0.07652713 18.06616248 0.09300996 20.77514648 0.11352539 C20.77514648 2.09352539 20.77514648 4.07352539 20.77514648 6.11352539 C14.83514648 6.11352539 8.89514648 6.11352539 2.77514648 6.11352539 C2.77514648 9.08352539 2.77514648 12.05352539 2.77514648 15.11352539 C6.73514648 15.11352539 10.69514648 15.11352539 14.77514648 15.11352539 C14.77514648 16.76352539 14.77514648 18.41352539 14.77514648 20.11352539 C10.81514648 20.11352539 6.85514648 20.11352539 2.77514648 20.11352539 C2.77514648 25.06352539 2.77514648 30.01352539 2.77514648 35.11352539 C8.71514648 35.11352539 14.65514648 35.11352539 20.77514648 35.11352539 C20.77514648 36.76352539 20.77514648 38.41352539 20.77514648 40.11352539 C12.85514648 40.11352539 4.93514648 40.11352539 -3.22485352 40.11352539 C-3.24776085 34.5775855 -3.26768842 29.04180884 -3.27978516 23.50585938 C-3.28482596 21.62108809 -3.2916585 19.73632074 -3.30029297 17.8515625 C-3.31236969 15.14850903 -3.3180842 12.44550708 -3.32250977 9.74243164 C-3.32767105 8.89451553 -3.33283234 8.04659943 -3.33815002 7.17298889 C-3.33834546 5.15281471 -3.28691562 3.13274605 -3.22485352 1.11352539 C-2.22485352 0.11352539 -2.22485352 0.11352539 0 0 Z " fill="#A68B50" transform="translate(453.224853515625,765.886474609375)"/>
<path d="M0 0 C0.98484375 -0.00128906 1.9696875 -0.00257813 2.984375 -0.00390625 C4.02078125 -0.00003906 5.0571875 0.00382813 6.125 0.0078125 C7.67960938 0.00201172 7.67960938 0.00201172 9.265625 -0.00390625 C10.25046875 -0.00261719 11.2353125 -0.00132812 12.25 0 C13.16007813 0.00112793 14.07015625 0.00225586 15.0078125 0.00341797 C17.125 0.1328125 17.125 0.1328125 18.125 1.1328125 C18.125 2.7828125 18.125 4.4328125 18.125 6.1328125 C12.185 6.1328125 6.245 6.1328125 0.125 6.1328125 C0.125 9.1028125 0.125 12.0728125 0.125 15.1328125 C4.085 15.1328125 8.045 15.1328125 12.125 15.1328125 C12.125 16.7828125 12.125 18.4328125 12.125 20.1328125 C8.165 20.1328125 4.205 20.1328125 0.125 20.1328125 C0.125 25.0828125 0.125 30.0328125 0.125 35.1328125 C6.065 35.1328125 12.005 35.1328125 18.125 35.1328125 C18.125 36.7828125 18.125 38.4328125 18.125 40.1328125 C10.205 40.1328125 2.285 40.1328125 -5.875 40.1328125 C-5.89790734 34.5968726 -5.91783491 29.06109595 -5.92993164 23.52514648 C-5.93497244 21.6403752 -5.94180498 19.75560785 -5.95043945 17.87084961 C-5.96251617 15.16779614 -5.96823068 12.46479419 -5.97265625 9.76171875 C-5.97781754 8.91380264 -5.98297882 8.06588654 -5.98829651 7.192276 C-5.98849195 5.17210182 -5.93706211 3.15203316 -5.875 1.1328125 C-4.22105883 -0.52112867 -2.27184587 0.00281567 0 0 Z " fill="#BEAA69" transform="translate(539.875,765.8671875)"/>
<path d="M0 0 C4.5478125 -0.1546875 4.5478125 -0.1546875 9.1875 -0.3125 C10.13391357 -0.35802002 11.08032715 -0.40354004 12.05541992 -0.45043945 C16.58414603 -0.5249488 18.39974554 -0.48343157 22.05078125 2.45703125 C22.69402344 3.29621094 23.33726562 4.13539063 24 5 C24.33 5.33 24.66 5.66 25 6 C25.35212689 11.28190335 25.5063371 14.74230495 22 19 C19.12543628 20.75175882 17.01789854 21.24311284 13.671875 21.1953125 C12.9509668 21.19031738 12.23005859 21.18532227 11.48730469 21.18017578 C10.58399414 21.16196777 9.68068359 21.14375977 8.75 21.125 C4.41875 21.063125 4.41875 21.063125 0 21 C0 14.07 0 7.14 0 0 Z " fill="#010100" transform="translate(464,675)"/>
<path d="M0 0 C7.92 0 15.84 0 24 0 C24 1.65 24 3.3 24 5 C23 6 23 6 19.18359375 6.09765625 C17.60153318 6.09098089 16.01948841 6.07901875 14.4375 6.0625 C13.63119141 6.05798828 12.82488281 6.05347656 11.99414062 6.04882812 C9.99606244 6.03700518 7.99802217 6.01906914 6 6 C6 8.97 6 11.94 6 15 C9.96 15 13.92 15 18 15 C18 16.65 18 18.3 18 20 C13.71 20 9.42 20 5 20 C5 24.95 5 29.9 5 35 C11.27 35 17.54 35 24 35 C24 36.65 24 38.3 24 40 C16.08 40 8.16 40 0 40 C0 26.8 0 13.6 0 0 Z " fill="#9B783F" transform="translate(385,766)"/>
<path d="M0 0 C7.59 0 15.18 0 23 0 C23 1.65 23 3.3 23 5 C17.06 5 11.12 5 5 5 C5 8.3 5 11.6 5 15 C8.96 15 12.92 15 17 15 C17 16.65 17 18.3 17 20 C13.04 20 9.08 20 5 20 C5 24.95 5 29.9 5 35 C10.94 35 16.88 35 23 35 C23.33 36.65 23.66 38.3 24 40 C16.08 40 8.16 40 0 40 C0 26.8 0 13.6 0 0 Z " fill="#9D753B" transform="translate(945,766)"/>
<path d="M0 0 C7.59 0 15.18 0 23 0 C23 1.32 23 2.64 23 4 C14.585 4.495 14.585 4.495 6 5 C5.67 7.97 5.34 10.94 5 14 C9.29 14 13.58 14 18 14 C18 15.65 18 17.3 18 19 C13.71 19 9.42 19 5 19 C5 23.95 5 28.9 5 34 C11.27 34 17.54 34 24 34 C24 35.65 24 37.3 24 39 C16.08 39 8.16 39 0 39 C0 26.13 0 13.26 0 0 Z " fill="#C4AC68" transform="translate(795,767)"/>
<path d="M0 0 C3 1.75 3 1.75 4 3.8125 C4 5.75 4 5.75 3 7.75 C2.236875 7.440625 1.47375 7.13125 0.6875 6.8125 C-3.95705939 4.97627885 -8.00855329 4.07752805 -13 4.75 C-17.79765866 7.14882933 -20.565249 9.97414226 -23 14.75 C-23.69041466 20.17468663 -22.57852786 23.96130541 -20 28.75 C-17.93045153 30.53344178 -17.93045153 30.53344178 -16 31.75 C-16 32.41 -16 33.07 -16 33.75 C-9.52729684 34.06096617 -4.69327657 34.25355481 1 30.75 C1.66 30.75 2.32 30.75 3 30.75 C3.495 33.225 3.495 33.225 4 35.75 C-1.65217683 39.36111297 -6.24837185 40.44539241 -13 39.75 C-19.74850541 37.5767525 -23.83370169 34.11830612 -27.3125 28 C-29.95837382 22.32261894 -29.66531154 17.12017235 -28 11.1875 C-27.67 10.383125 -27.34 9.57875 -27 8.75 C-26.34 8.75 -25.68 8.75 -25 8.75 C-24.76410156 7.98300781 -24.52820313 7.21601562 -24.28515625 6.42578125 C-22.35737801 2.41201805 -19.65615781 1.49414917 -15.7265625 -0.30078125 C-10.26088668 -2.20358816 -5.40937645 -1.9830708 0 0 Z " fill="#946C34" transform="translate(366,767.25)"/>
<path d="M0 0 C0.78375 0.04125 1.5675 0.0825 2.375 0.125 C-0.05793642 7.9383012 -3.13404399 15.45436056 -6.2956543 22.99365234 C-7.19593346 25.14515443 -8.08538639 27.30093995 -8.97460938 29.45703125 C-9.54622306 30.82579327 -10.11846541 32.19429297 -10.69140625 33.5625 C-10.95603165 34.20719238 -11.22065704 34.85188477 -11.49330139 35.51611328 C-13.39615672 40.01057836 -13.39615672 40.01057836 -15.625 41.125 C-17.24689027 37.51980946 -18.8640474 33.91253333 -20.47729492 30.3034668 C-21.28915 28.48966722 -22.10448497 26.67742648 -22.91992188 24.86523438 C-26.41649962 17.0354744 -29.63210452 9.15997311 -32.625 1.125 C-30.645 1.125 -28.665 1.125 -26.625 1.125 C-22.995 9.705 -19.365 18.285 -15.625 27.125 C-12.29093235 20.45686471 -9.30109762 14.05891118 -6.68945312 7.14453125 C-4.00104909 0.19052615 -4.00104909 0.19052615 0 0 Z " fill="#BBA261" transform="translate(518.625,765.875)"/>
<path d="M0 0 C1.2065625 0.0309375 1.2065625 0.0309375 2.4375 0.0625 C2.03239708 1.73201505 1.61267538 3.39798362 1.1875 5.0625 C0.95546875 5.990625 0.7234375 6.91875 0.484375 7.875 C-0.56824375 11.07998845 -1.92722186 13.85433642 -3.47021484 16.84082031 C-5.48226331 20.93327472 -7.08911058 25.19335105 -8.75 29.4375 C-9.4511329 31.21641795 -10.15292305 32.99507703 -10.85546875 34.7734375 C-11.1599292 35.54993652 -11.46438965 36.32643555 -11.77807617 37.12646484 C-12.5625 39.0625 -12.5625 39.0625 -13.5625 41.0625 C-14.2225 41.0625 -14.8825 41.0625 -15.5625 41.0625 C-17.36333372 36.81425151 -19.15960915 32.56411376 -20.9519043 28.31225586 C-21.56071738 26.86968606 -22.17071735 25.42761651 -22.78198242 23.98608398 C-25.98591194 16.42816358 -29.13255681 8.91376047 -31.5625 1.0625 C-29.9125 1.0625 -28.2625 1.0625 -26.5625 1.0625 C-23.73665849 6.58289391 -21.17108125 12.14050953 -18.8125 17.875 C-18.49667969 18.62458984 -18.18085937 19.37417969 -17.85546875 20.14648438 C-15.5625 25.70023336 -15.5625 25.70023336 -15.5625 29.0625 C-14.9025 29.0625 -14.2425 29.0625 -13.5625 29.0625 C-13.4696875 27.9178125 -13.4696875 27.9178125 -13.375 26.75 C-12.43475722 22.48274431 -10.76480251 18.96280009 -8.90234375 15.02734375 C-7.15209323 11.15434042 -5.74687517 7.19433964 -4.359375 3.1796875 C-3.19189413 0.07785108 -3.19189413 0.07785108 0 0 Z " fill="#A9894C" transform="translate(906.5625,765.9375)"/>
<path d="M0 0 C2.17578125 -0.46875 2.17578125 -0.46875 5 0 C7.11123199 2.25281517 8.61254174 4.85521381 10.1875 7.5 C11.74333572 10.04341333 13.33466095 12.5240977 15 15 C15.66 15 16.32 15 17 15 C17.33 14.34 17.66 13.68 18 13 C18.66 13 19.32 13 20 13 C20.061875 12.319375 20.12375 11.63875 20.1875 10.9375 C21.28117559 6.98344209 22.98368277 3.82480503 26 1 C29.3125 0.5625 29.3125 0.5625 32 1 C30.94900832 4.15297503 29.59310466 6.68889482 27.65234375 9.35546875 C20.33858342 19.5567327 18.50887241 27.51958126 19 40 C17.02 40 15.04 40 13 40 C13.03222656 38.79085937 13.06445312 37.58171875 13.09765625 36.3359375 C13.12068073 23.85411304 10.55225113 16.77817778 3 7 C0 2.37554585 0 2.37554585 0 0 Z " fill="#D6CB83" transform="translate(614,766)"/>
<path d="M0 0 C2 1 2 1 3.05322266 3.54443359 C3.4197998 4.65125488 3.78637695 5.75807617 4.1640625 6.8984375 C4.56367187 8.09984375 4.96328125 9.30125 5.375 10.5390625 C5.57996094 11.16844727 5.78492188 11.79783203 5.99609375 12.44628906 C6.62113758 14.36315483 7.25879235 16.27546364 7.8984375 18.1875 C11 27.59288758 11 27.59288758 11 31 C4.07 31 -2.86 31 -10 31 C-7.35692322 20.42769289 -3.67044771 10.2492395 0 0 Z " fill="#080603" transform="translate(945,678)"/>
<path d="M0 0 C10.77189939 -0.47875108 10.77189939 -0.47875108 15.6875 1.4375 C18.49218811 4.54539764 19.12883723 6.60045124 19.265625 10.73828125 C18.92530816 13.63597903 18.1202853 15.8502843 16.078125 17.98046875 C11.21039348 20.36858515 5.22134044 19.29278545 0 19 C0 12.73 0 6.46 0 0 Z " fill="#050403" transform="translate(578,771)"/>
<path d="M0 0 C8.91 0 17.82 0 27 0 C27.33 1.65 27.66 3.3 28 5 C24.04 5 20.08 5 16 5 C16 16.55 16 28.1 16 40 C14.35 40 12.7 40 11 40 C11 28.78 11 17.56 11 6 C7.37 6 3.74 6 0 6 C0 4.02 0 2.04 0 0 Z " fill="#C4B16E" transform="translate(754,766)"/>
<path d="M0 0 C11.96670666 -0.60437912 11.96670666 -0.60437912 16.3125 1.9375 C18.55930803 6.01504051 18.77580144 9.435021 18 14 C16.46511628 17.76744186 16.46511628 17.76744186 14 19 C9.33091139 19.13996069 4.67201378 19.04247285 0 19 C0 12.73 0 6.46 0 0 Z " fill="#040302" transform="translate(839,771)"/>
<path d="M0 0 C1.65 0 3.3 0 5 0 C5 12.87 5 25.74 5 39 C3.35 39 1.7 39 0 39 C0 26.13 0 13.26 0 0 Z " fill="#AC8646" transform="translate(923,767)"/>
<path d="M0 0 C1.65 0 3.3 0 5 0 C5 12.87 5 25.74 5 39 C3.35 39 1.7 39 0 39 C0 26.13 0 13.26 0 0 Z " fill="#E1D58A" transform="translate(686,767)"/>
<path d="M0 0 C0.66 0 1.32 0 2 0 C2.84026396 1.76755526 3.67198722 3.53917263 4.5 5.3125 C4.9640625 6.29863281 5.428125 7.28476562 5.90625 8.30078125 C7 11 7 11 7 14 C3.04 14 -0.92 14 -5 14 C-4.17951987 10.71807948 -3.20814684 7.86513418 -1.9375 4.75 C-1.57527344 3.85796875 -1.21304687 2.9659375 -0.83984375 2.046875 C-0.56269531 1.37140625 -0.28554688 0.6959375 0 0 Z " fill="#060401" transform="translate(307,779)"/>
</svg>
